<?xml version="1.0" encoding="utf-8"?>
<!-- Generator: Adobe Illustrator 22.1.0, SVG Export Plug-In . SVG Version: 6.00 Build 0)  -->
<svg version="1.1"
	 id="svg2" inkscape:version="0.91 r13725" sodipodi:docname="aaa.svg" xmlns:cc="http://creativecommons.org/ns#" xmlns:dc="http://purl.org/dc/elements/1.1/" xmlns:inkscape="http://www.inkscape.org/namespaces/inkscape" xmlns:rdf="http://www.w3.org/1999/02/22-rdf-syntax-ns#" xmlns:sodipodi="http://sodipodi.sourceforge.net/DTD/sodipodi-0.dtd" xmlns:svg="http://www.w3.org/2000/svg"
	 xmlns="http://www.w3.org/2000/svg" xmlns:xlink="http://www.w3.org/1999/xlink" x="0px" y="0px" viewBox="0 0 595.3 841.9"
	 style="enable-background:new 0 0 595.3 841.9;" xml:space="preserve">
<style type="text/css">
	.st0{fill:#DDDDDD;}
</style>
<sodipodi:namedview  bordercolor="#666666" borderopacity="1.0" id="base" inkscape:current-layer="layer1" inkscape:cx="635.5236" inkscape:cy="495.53637" inkscape:document-units="px" inkscape:pageopacity="0.0" inkscape:pageshadow="2" inkscape:window-height="1017" inkscape:window-maximized="1" inkscape:window-width="1920" inkscape:window-x="-8" inkscape:window-y="-8" inkscape:zoom="0.7" pagecolor="#ffffff" showgrid="false" showguides="false">
	</sodipodi:namedview>
<g>
	<path class="st0" d="M192.8,229.4h-90c-2.7,0-5-2.3-5-5v0c0-2.8,2.3-5,5-5h90c2.8,0,5,2.3,5,5v0
		C197.8,227.1,195.6,229.4,192.8,229.4z"/>
	<path class="st0" d="M102.8,319.5L102.8,319.5c-2.8,0-5-2.3-5-5v-90c0-2.8,2.3-5,5-5h0c2.7,0,5,2.3,5,5v90
		C107.8,317.2,105.6,319.5,102.8,319.5z"/>
</g>
<g>
	<path class="st0" d="M107.8,466.6v90c0,2.8-2.3,5-5,5h0c-2.7,0-5-2.3-5-5v-90c0-2.8,2.3-5,5-5h0
		C105.5,461.6,107.8,463.9,107.8,466.6z"/>
	<path class="st0" d="M197.9,556.6L197.9,556.6c0,2.8-2.3,5-5,5h-90c-2.7,0-5-2.3-5-5l0,0c0-2.8,2.3-5,5-5h90
		C195.6,551.6,197.9,553.9,197.9,556.6z"/>
</g>
<g>
	<path class="st0" d="M410.2,551.5h90c2.8,0,5,2.3,5,5v0c0,2.8-2.3,5-5,5h-90c-2.8,0-5-2.2-5-5v0
		C405.2,553.7,407.5,551.5,410.2,551.5z"/>
	<path class="st0" d="M500.2,461.4L500.2,461.4c2.8,0,5,2.3,5,5v90c0,2.8-2.3,5-5,5l0,0c-2.8,0-5-2.2-5-5v-90
		C495.2,463.6,497.5,461.4,500.2,461.4z"/>
</g>
<g>
	<path class="st0" d="M495.3,314.2v-90c0-2.8,2.3-5,5-5l0,0c2.8,0,5,2.3,5,5v90c0,2.8-2.3,5-5,5l0,0
		C497.5,319.2,495.3,317,495.3,314.2z"/>
	<path class="st0" d="M405.2,224.2L405.2,224.2c0-2.8,2.3-5,5-5h90c2.8,0,5,2.3,5,5v0c0,2.8-2.3,5-5,5h-90
		C407.4,229.2,405.2,227,405.2,224.2z"/>
</g>
</svg>
